<?xml version="1.0" encoding="utf-8"?>
<!-- Generator: Adobe Illustrator 21.0.0, SVG Export Plug-In . SVG Version: 6.00 Build 0)  -->
<svg version="1.1" id="Layer_1" xmlns="http://www.w3.org/2000/svg" xmlns:xlink="http://www.w3.org/1999/xlink" x="0px" y="0px"
	 viewBox="-86 2.1 25.2 36.9" style="enable-background:new -86 2.1 25.2 36.9;" xml:space="preserve">
<style type="text/css">
	.st0{fill:#FFFFFF;}
</style>
<g>
	<polygon class="st0" points="-83.7183,35.9723 -84.0039,38.6343 -85.0815,38.6343 -85.638,33.6385 -84.8747,33.6385 
		-84.4536,37.5778 -84.0752,33.6385 -83.3188,33.6385 -82.9264,37.6064 -82.5193,33.6385 -81.8342,33.6385 -82.3908,38.6343 
		-83.4327,38.6343 	"/>
	<polygon class="st0" points="-80.6559,35.7441 -79.5783,35.7441 -79.5783,36.4572 -80.6559,36.4572 -80.6559,37.9208 
		-79.2997,37.9208 -79.2997,38.6345 -81.4408,38.6345 -81.4408,33.6387 -79.2997,33.6387 -79.2997,34.3524 -80.6559,34.3524 	"/>
	<path class="st0" d="M-72.5179,2.4701l-2.6369-0.0047v25.4575h-0.9012c-0.4859,0-0.8801-0.3913-0.8801-0.8731V3.3432
		l-0.0041-0.0012c-0.0006-0.4766-0.3837-0.8632-0.8579-0.8714V2.4701h-2.6317l-0.0164-0.0047v0.0047v0.8772v24.5756h-0.9088
		c-0.4421,0-0.8071-0.3236-0.8696-0.7452c0.0035-0.0438,0.0064-0.087,0.0064-0.132c0-0.0794-0.007-0.1559-0.0169-0.2324V3.3391
		c0-0.4824-0.3907-0.8737-0.8731-0.8737h-0.0023h-2.6346V27.041v0.0047c0,0.9701,0.7896,1.7562,1.7632,1.7562h1.7468h1.7889h3.51
		h3.5357h0.0047c0.9666,0,1.7504-0.7844,1.7504-1.7515V3.3432C-71.6453,2.8608-72.036,2.4701-72.5179,2.4701"/>
	<path class="st0" d="M-64.5737,3.3486h-0.8801c0.4567,0,0.8322,0.3452,0.8761,0.7867c-0.0018,0.0292-0.0047,0.0572-0.0047,0.0859
		c0,0.0584,0.0035,0.1156,0.0088,0.1723V27.923h-0.9006c-0.4865,0-0.8801-0.3913-0.8801-0.8731V3.3445h1.7807V3.3486z
		 M-62.8187,2.4655h-0.0047h-3.5311h-3.51v0.879V27.923v0.879h3.51h1.7807h1.7743h0.0047c0.9245,0,1.6773-0.7265,1.7264-1.6406
		l0.0047-0.0023l-0.0029-0.038c0.0006-0.0181,0.0029-0.0356,0.0029-0.0537V4.3934c0.0053-0.0567,0.0088-0.1139,0.0088-0.1723
		C-61.0549,3.2522-61.8445,2.4655-62.8187,2.4655"/>
	<path class="st0" d="M-78.0286,36.3865v1.5343h0.4491c0.2646,0,0.4071-0.1215,0.4071-0.4923v-0.4357
		c0-0.4637-0.1501-0.6062-0.5069-0.6062H-78.0286z M-78.0286,34.3523v1.3205h0.3066c0.2926,0,0.4707-0.1291,0.4707-0.5286v-0.278
		c0-0.3574-0.1215-0.514-0.3995-0.514H-78.0286z M-76.4658,34.7874v0.1787c0,0.5139-0.1571,0.8422-0.5069,1.0063
		c0.4211,0.1641,0.5852,0.5426,0.5852,1.0705V37.45c0,0.7703-0.4065,1.1844-1.192,1.1844h-1.2346v-4.9958h1.185
		C-76.8156,33.6386-76.4658,34.0171-76.4658,34.7874"/>
	<path class="st0" d="M-75.1308,34.3522v3.5685h0.4427c0.2494,0,0.3995-0.1285,0.3995-0.4853v-2.5978
		c0-0.3568-0.1501-0.4853-0.3995-0.4853H-75.1308z M-75.9157,33.6385h1.2417c0.7849,0,1.1704,0.4351,1.1704,1.2346v2.5265
		c0,0.799-0.3855,1.2346-1.1704,1.2346h-1.2417V33.6385z"/>
	<path class="st0" d="M-72.2187,34.3523v1.5343h0.3072c0.2926,0,0.4713-0.1285,0.4713-0.528v-0.4929
		c0-0.3568-0.1215-0.5134-0.4001-0.5134H-72.2187z M-71.3619,38.6344c-0.0426-0.1285-0.0713-0.2067-0.0713-0.6138v-0.7849
		c0-0.4643-0.1571-0.6354-0.514-0.6354h-0.2716v2.0342h-0.7844v-4.9958h1.1844c0.8136,0,1.1634,0.3785,1.1634,1.1488v0.3925
		c0,0.514-0.1641,0.8492-0.514,1.0133c0.3925,0.1647,0.521,0.5426,0.521,1.0635v0.7709c0,0.243,0.0076,0.4211,0.0859,0.6068
		H-71.3619z"/>
	<polygon class="st0" points="-69.3485,35.7441 -68.271,35.7441 -68.271,36.4572 -69.3485,36.4572 -69.3485,37.9208 
		-67.9929,37.9208 -67.9929,38.6345 -70.134,38.6345 -70.134,33.6387 -67.9929,33.6387 -67.9929,34.3524 -69.3485,34.3524 	"/>
	<path class="st0" d="M-66.7574,37.05h0.7563l-0.3785-2.5265L-66.7574,37.05z M-64.9662,38.6344h-0.792l-0.1361-0.9064h-0.9631
		l-0.1355,0.9064h-0.7207l0.799-4.9958h1.1494L-64.9662,38.6344z"/>
	<polygon class="st0" points="-62.9387,37.1856 -62.4031,33.6387 -61.3115,33.6387 -61.3115,38.6346 -62.0538,38.6346 
		-62.0538,35.0515 -62.5964,38.6346 -63.3381,38.6346 -63.9239,35.1017 -63.9239,38.6346 -64.609,38.6346 -64.609,33.6387 
		-63.5168,33.6387 	"/>
</g>
</svg>
